<svg xmlns="http://www.w3.org/2000/svg" xmlns:xlink="http://www.w3.org/1999/xlink" width="1080" zoomAndPan="magnify" viewBox="0 0 810 809.999993" height="1080" preserveAspectRatio="xMidYMid meet" version="1.0"><defs><clipPath id="cfc2e35402"><path d="M 109.113281 69 L 700.863281 69 L 700.863281 739 L 109.113281 739 Z M 109.113281 69 " clip-rule="nonzero"/></clipPath></defs><rect x="-81" width="972" fill="#ffffff" y="-80.999999" height="971.999992" fill-opacity="1"/><rect x="-81" width="972" fill="#000000" y="-80.999999" height="971.999992" fill-opacity="1"/><g clip-path="url(#cfc2e35402)"><path fill="#ffffff" d="M 678.773438 69.589844 L 131.382812 69.589844 C 119.078125 69.589844 109.113281 79.554688 109.113281 91.859375 L 109.113281 716.519531 C 109.113281 725.425781 114.457031 733.5 122.640625 737.007812 C 130.824219 740.515625 140.34375 738.789062 146.746094 732.609375 L 405.050781 484.9375 L 663.355469 732.609375 C 667.585938 736.671875 673.152344 738.789062 678.773438 738.789062 C 681.726562 738.789062 684.675781 738.230469 687.515625 737.007812 C 695.699219 733.5 701.042969 725.425781 701.042969 716.519531 L 701.042969 91.859375 C 701.042969 79.554688 691.078125 69.589844 678.773438 69.589844 Z M 656.507812 664.359375 L 420.414062 438.007812 C 416.128906 433.890625 410.5625 431.828125 404.996094 431.828125 C 399.429688 431.828125 393.917969 433.890625 389.574219 438.007812 L 153.59375 664.359375 L 153.59375 114.070312 L 656.507812 114.070312 Z M 656.507812 664.359375 " fill-opacity="1" fill-rule="nonzero"/></g><path stroke-linecap="butt" transform="matrix(0.75, -0.000000000000000093, 0.000000000000000093, 0.75, 188.430755, 160.281823)" fill="none" stroke-linejoin="miter" d="M -0.00142309 17.999237 L 577.519439 17.999237 " stroke="#ffffff" stroke-width="36" stroke-opacity="1" stroke-miterlimit="4"/><path stroke-linecap="butt" transform="matrix(0.75, 0, 0, 0.75, 188.430755, 249.995458)" fill="none" stroke-linejoin="miter" d="M -0.00142309 18.000849 L 577.519439 18.000849 " stroke="#ffffff" stroke-width="36" stroke-opacity="1" stroke-miterlimit="4"/><path stroke-linecap="butt" transform="matrix(0.75, 0, 0, 0.75, 188.430755, 339.995453)" fill="none" stroke-linejoin="miter" d="M -0.00142309 18.000855 L 577.519439 18.000855 " stroke="#ffffff" stroke-width="36" stroke-opacity="1" stroke-miterlimit="4"/></svg>